<svg width="107" height="150" viewBox="0 0 107 150" fill="none" xmlns="http://www.w3.org/2000/svg">
<path d="M80.25 100C95.0236 100 107 88.8071 107 75C107 61.1929 95.0236 50 80.25 50C65.4764 50 53.5 61.1929 53.5 75C53.5 88.8071 65.4764 100 80.25 100Z" fill="#19BCFE"/>
<path fill-rule="evenodd" clip-rule="evenodd" d="M26.75 150C41.5236 150 53.5 138.807 53.5 125C53.5 121.231 53.5 112.898 53.5 100C41.4828 100 32.5662 100 26.75 100C11.9764 100 0 111.193 0 125C0 138.807 11.9764 150 26.75 150Z" fill="#09CF83"/>
<path fill-rule="evenodd" clip-rule="evenodd" d="M26.75 100C31.6745 100 40.5912 100 53.5 100V50C40.5912 50 31.6745 50 26.75 50C11.9764 50 0 61.1929 0 75C0 88.8071 11.9764 100 26.75 100Z" fill="#A259FF"/>
<path fill-rule="evenodd" clip-rule="evenodd" d="M26.75 50C31.6745 50 40.5912 50 53.5 50V0C40.5912 0 31.6745 0 26.75 0C11.9764 0 0 11.1929 0 25C0 38.8071 11.9764 50 26.75 50Z" fill="#F24E1E"/>
<path fill-rule="evenodd" clip-rule="evenodd" d="M80.25 50H53.5V0H80.25C95.0236 0 107 11.1929 107 25C107 38.8071 95.0236 50 80.25 50Z" fill="#FF7262"/>
</svg>
