<svg width="150" height="150" viewBox="0 0 150 150" fill="none" xmlns="http://www.w3.org/2000/svg">
<path d="M140.625 9.375H9.375V140.625H140.625V9.375Z" fill="#F5DE19"/>
<path d="M97.5422 111.914C98.6605 114.186 100.398 116.095 102.554 117.422C104.711 118.749 107.198 119.439 109.73 119.414C114.839 119.414 118.106 116.859 118.106 113.32C118.106 109.102 114.75 107.592 109.125 105.131L106.041 103.809C97.1344 100.017 91.2281 95.2687 91.2281 85.2281C91.2281 75.9797 98.2594 68.9344 109.289 68.9344C112.86 68.6765 116.427 69.4757 119.546 71.232C122.666 72.9884 125.199 75.6243 126.83 78.8109L117.188 84.975C116.559 83.3949 115.466 82.0431 114.052 81.0988C112.638 80.1545 110.97 79.6623 109.27 79.6875C108.529 79.6132 107.78 79.6943 107.071 79.9256C106.362 80.1568 105.709 80.5331 105.154 81.0306C104.599 81.528 104.153 82.1356 103.846 82.8148C103.539 83.4939 103.376 84.2296 103.369 84.975C103.369 88.6734 105.661 90.1734 110.953 92.475L114.038 93.7969C124.519 98.2922 130.444 102.872 130.444 113.17C130.444 124.275 121.72 130.359 110.006 130.359C105.442 130.65 100.891 129.614 96.9029 127.376C92.9146 125.137 89.6593 121.793 87.5297 117.745L97.5422 111.914ZM53.9719 112.983C55.9078 116.419 57.6703 119.325 61.9078 119.325C65.9578 119.325 68.5172 117.741 68.5172 111.577V69.6375H80.85V111.741C80.85 124.509 73.35 130.322 62.4328 130.322C58.5739 130.533 54.7414 129.571 51.4392 127.563C48.137 125.555 45.5197 122.595 43.9313 119.072L53.9719 112.983Z" fill="black"/>
</svg>
