<svg width="168" height="151" viewBox="0 0 168 151" fill="none" xmlns="http://www.w3.org/2000/svg">
<path d="M42.1968 49.615H12.7363L0 119.5H15.1276L18.3135 101.385H32.6465C46.1774 102.246 61.3124 90.1667 61.3124 69.4603C61.3124 57.3809 54.9405 50.4761 42.2042 49.615H42.1968ZM31.0498 88.4445H21.492L25.4725 62.5636H35.8249C41.3947 62.5636 45.3827 65.1549 45.3827 70.3294C44.5881 85.0001 38.2163 87.5834 31.0498 88.4445ZM95.5406 49.615H81.2077L84.3936 31.5H69.266L56.5298 101.385H71.6573L78.8238 62.5636H90.7654C96.3427 62.5636 96.3427 65.1549 95.5406 69.4684L89.9708 101.393H105.893L111.463 66.016C113.052 57.389 108.277 50.4842 95.5406 49.6231V49.615ZM148.884 49.615H119.424L106.688 119.5H121.815L125.001 101.385H139.334C152.872 102.246 168 90.1667 168 69.4603C168 57.3809 161.628 50.4761 148.892 49.615H148.884ZM137.737 88.4445H128.18L132.16 62.5636H142.513C148.09 62.5636 152.07 65.1549 152.07 70.3294C151.276 85.0001 144.904 87.5834 137.737 88.4445Z" fill="white"/>
</svg>
