<svg width="170" height="150" viewBox="0 0 170 150" fill="none" xmlns="http://www.w3.org/2000/svg">
<path d="M139.774 48.6178C138.011 48.0158 136.183 47.4462 134.302 46.9076C134.611 45.6559 134.895 44.4204 135.147 43.2059C139.29 23.2638 136.581 7.1983 127.332 1.90885C118.464 -3.16303 103.96 2.12522 89.3117 14.7676C87.9031 15.9832 86.4906 17.2703 85.0787 18.6193C84.1379 17.7268 83.1986 16.8643 82.2618 16.0394C66.9101 2.52134 51.5224 -3.17533 42.2826 2.12942C33.4225 7.216 30.7987 22.3191 34.5276 41.2184C34.8877 43.0439 35.3086 44.908 35.7846 46.8034C33.6068 47.4165 31.5044 48.0701 29.4927 48.7654C11.4945 54.9885 0 64.7415 0 74.858C0 85.3063 12.3393 95.7862 31.0859 102.141C32.5653 102.642 34.1003 103.116 35.6823 103.566C35.1688 105.616 34.7222 107.625 34.3473 109.585C30.7917 128.156 33.5684 142.902 42.4048 147.957C51.5321 153.176 66.8502 147.811 81.7661 134.881C82.9451 133.858 84.1282 132.775 85.3135 131.638C86.8498 133.106 88.3836 134.494 89.9093 135.796C104.357 148.126 118.627 153.105 127.455 148.037C136.573 142.802 139.537 126.961 135.689 107.688C135.396 106.216 135.054 104.712 134.67 103.181C135.745 102.866 136.801 102.54 137.831 102.202C157.32 95.7982 170 85.4459 170 74.858C170 64.7049 158.135 54.8862 139.774 48.6178ZM135.547 95.3655C134.618 95.6707 133.664 95.9657 132.692 96.2516C130.54 89.4968 127.637 82.3141 124.083 74.8931C127.474 67.6488 130.266 60.5579 132.357 53.8469C134.096 54.346 135.784 54.8724 137.41 55.4278C153.142 60.7986 162.738 68.7394 162.738 74.858C162.738 81.3754 152.374 89.8359 135.547 95.3655ZM128.565 109.086C130.266 117.609 130.509 125.314 129.382 131.337C128.37 136.75 126.334 140.358 123.816 141.804C118.459 144.879 107.002 140.882 94.6456 130.337C93.2291 129.128 91.8024 127.837 90.3711 126.471C95.1612 121.276 99.9486 115.236 104.621 108.528C112.839 107.805 120.604 106.622 127.645 105.008C127.992 106.395 128.3 107.756 128.565 109.086ZM57.9568 141.272C52.7225 143.106 48.5536 143.158 46.0336 141.717C40.6712 138.65 38.442 126.81 41.4828 110.928C41.8311 109.109 42.2457 107.24 42.7235 105.331C49.6875 106.858 57.3949 107.957 65.6328 108.619C70.3367 115.183 75.2624 121.216 80.2262 126.499C79.1417 127.538 78.0614 128.526 76.9872 129.458C70.3915 135.175 63.7818 139.232 57.9568 141.272ZM33.4346 95.3256C25.1453 92.5158 18.2996 88.8639 13.6072 84.879C9.39082 81.298 7.26204 77.7428 7.26204 74.858C7.26204 68.719 16.491 60.8886 31.8832 55.5665C33.7508 54.9207 35.7059 54.3121 37.7348 53.7404C39.8621 60.6029 42.6527 67.7779 46.0203 75.0332C42.6091 82.3963 39.7789 89.6856 37.6307 96.6286C36.1843 96.2162 34.783 95.7823 33.4346 95.3256ZM41.6547 39.8353C38.4599 23.6428 40.5817 11.4278 45.921 8.36266C51.6083 5.09734 64.1846 9.753 77.4396 21.4251C78.2869 22.1712 79.1375 22.952 79.9905 23.7599C75.0512 29.0196 70.1706 35.0077 65.5085 41.5329C57.5132 42.2678 49.8599 43.4484 42.8233 45.0293C42.3809 43.2644 41.9891 41.5305 41.6547 39.8353ZM114.985 57.7926C113.303 54.9111 111.576 52.0977 109.815 49.3611C115.24 50.0411 120.436 50.9438 125.317 52.0485C123.851 56.7053 122.025 61.5743 119.876 66.5658C118.334 63.6624 116.703 60.735 114.985 57.7926ZM85.0811 28.9071C88.4308 32.5061 91.7855 36.5243 95.085 40.8841C91.76 40.7283 88.3939 40.6473 85 40.6473C81.6381 40.6473 78.2969 40.7265 74.9925 40.8796C78.2953 36.5603 81.679 32.5475 85.0811 28.9071ZM54.9856 57.8424C53.3053 60.732 51.7046 63.6435 50.1867 66.5604C48.0719 61.5863 46.2626 56.6951 44.7848 51.9722C49.6351 50.8958 54.8074 50.0156 60.197 49.3485C58.4116 52.1103 56.6705 54.945 54.9856 57.8424ZM60.3522 100.881C54.7838 100.265 49.5337 99.4302 44.6846 98.3835C46.1861 93.5763 48.0353 88.5807 50.1949 83.4995C51.7167 86.4143 53.3238 89.327 55.0144 92.2229C56.7365 95.1731 58.5209 98.063 60.3522 100.881ZM85.282 121.317C81.84 117.634 78.4067 113.56 75.0536 109.177C78.3087 109.304 81.6272 109.369 85 109.369C88.465 109.369 91.8904 109.291 95.262 109.142C91.9516 113.604 88.6091 117.684 85.282 121.317ZM119.945 83.2405C122.217 88.3766 124.133 93.3461 125.653 98.0714C120.724 99.1866 115.403 100.085 109.795 100.752C111.56 97.9787 113.302 95.117 115.014 92.1734C116.746 89.1952 118.39 86.2126 119.945 83.2405ZM108.723 88.5752C106.066 93.1448 103.338 97.5069 100.568 101.625C95.5234 101.982 90.3118 102.166 85 102.166C79.7097 102.166 74.5637 102.004 69.6084 101.685C66.727 97.5129 63.9395 93.1379 61.299 88.6146C58.6655 84.1036 56.2423 79.5544 54.0461 75.0308C56.2417 70.4967 58.6592 65.9425 61.2775 61.4396L61.2769 61.4405C63.9023 56.9256 66.6653 52.5718 69.52 48.4263C74.5758 48.0473 79.7602 47.8496 84.9997 47.8496C90.2628 47.8496 95.4541 48.0488 100.508 48.4311C103.32 52.5463 106.064 56.886 108.699 61.4015C111.365 65.9677 113.814 70.4916 116.028 74.9285C113.82 79.4416 111.377 84.0111 108.723 88.5752ZM123.705 8.1484C129.397 11.4041 131.611 24.5344 128.035 41.7523C127.806 42.8509 127.549 43.97 127.27 45.104C120.218 43.4901 112.559 42.2891 104.54 41.5431C99.869 34.9461 95.0284 28.9488 90.1696 23.7566C91.4759 22.5103 92.7804 21.3219 94.0794 20.2004C106.63 9.36857 118.36 5.09194 123.705 8.1484ZM85 59.8032C93.3838 59.8032 100.18 66.5433 100.18 74.858C100.18 83.1724 93.3838 89.9128 85 89.9128C76.6162 89.9128 69.8196 83.1724 69.8196 74.858C69.8196 66.5433 76.6162 59.8032 85 59.8032Z" fill="#00D8FF"/>
</svg>
