<svg width="190" height="70" viewBox="0 0 190 70" fill="none" xmlns="http://www.w3.org/2000/svg">
<path d="M27.7148 69.652C22.3387 69.652 17.1867 68.948 12.2587 67.54C7.33075 66.068 3.36275 64.18 0.354748 61.876L5.63475 50.164C8.51475 52.212 11.9067 53.908 15.8107 55.252C19.7787 56.532 23.7787 57.172 27.8107 57.172C30.8827 57.172 33.3468 56.884 35.2028 56.308C37.1228 55.668 38.5308 54.804 39.4268 53.716C40.3228 52.628 40.7708 51.38 40.7708 49.972C40.7708 48.18 40.0668 46.772 38.6587 45.748C37.2508 44.66 35.3948 43.796 33.0907 43.156C30.7867 42.452 28.2267 41.812 25.4107 41.236C22.6587 40.596 19.8747 39.828 17.0587 38.932C14.3067 38.036 11.7787 36.884 9.47475 35.476C7.17075 34.068 5.28275 32.212 3.81075 29.908C2.40275 27.604 1.69875 24.66 1.69875 21.076C1.69875 17.236 2.72275 13.748 4.77075 10.612C6.88275 7.41199 10.0187 4.884 14.1787 3.028C18.4027 1.108 23.6827 0.147999 30.0187 0.147999C34.2428 0.147999 38.4028 0.659998 42.4987 1.684C46.5947 2.644 50.2108 4.116 53.3468 6.1L48.5468 17.908C45.4108 16.116 42.2748 14.804 39.1387 13.972C36.0027 13.076 32.9307 12.628 29.9228 12.628C26.9147 12.628 24.4507 12.98 22.5307 13.684C20.6107 14.388 19.2347 15.316 18.4027 16.468C17.5707 17.556 17.1547 18.836 17.1547 20.308C17.1547 22.036 17.8587 23.444 19.2667 24.532C20.6747 25.556 22.5307 26.388 24.8348 27.028C27.1387 27.668 29.6667 28.308 32.4187 28.948C35.2347 29.588 38.0188 30.324 40.7708 31.156C43.5868 31.988 46.1468 33.108 48.4508 34.516C50.7547 35.924 52.6107 37.78 54.0187 40.084C55.4907 42.388 56.2267 45.3 56.2267 48.82C56.2267 52.596 55.1707 56.052 53.0588 59.188C50.9468 62.324 47.7788 64.852 43.5547 66.772C39.3947 68.692 34.1147 69.652 27.7148 69.652ZM62.0535 68.5V1.3H91.1415C97.1575 1.3 102.342 2.292 106.694 4.276C111.046 6.196 114.406 8.98 116.774 12.628C119.142 16.276 120.326 20.628 120.326 25.684C120.326 30.676 119.142 34.996 116.774 38.644C114.406 42.292 111.046 45.108 106.694 47.092C102.342 49.012 97.1575 49.972 91.1415 49.972H70.6935L77.6055 42.964V68.5H62.0535ZM77.6055 44.692L70.6935 37.3H90.2775C95.0775 37.3 98.6615 36.276 101.03 34.228C103.398 32.18 104.582 29.332 104.582 25.684C104.582 21.972 103.398 19.092 101.03 17.044C98.6615 14.996 95.0775 13.972 90.2775 13.972H70.6935L77.6055 6.58V44.692ZM114.421 68.5L144.373 1.3H159.734L189.782 68.5H173.462L148.886 9.172H155.03L130.358 68.5H114.421ZM129.397 54.1L133.526 42.292H168.086L172.31 54.1H129.397Z" fill="white"/>
</svg>
