<svg width="151" height="150" viewBox="0 0 151 150" fill="none" xmlns="http://www.w3.org/2000/svg">
<path d="M84.9428 138.75C85.1396 138.305 85.6365 137.995 85.9975 137.62C91.5053 131.845 97.06 126.122 102.493 120.277C104.193 118.706 105.507 116.764 106.331 114.602C107.156 112.44 107.469 110.116 107.246 107.812C107.075 106.826 106.852 105.85 106.576 104.887C105.094 106.294 103.716 107.573 102.329 108.862C100.172 110.869 98.0256 112.884 95.8506 114.867C94.5681 116.175 92.919 117.063 91.1213 117.413C89.3236 117.764 87.4618 117.561 85.7818 116.831C84.0812 116.206 82.6016 115.096 81.5266 113.638C80.4516 112.179 79.8286 110.437 79.735 108.628C79.6846 108.395 79.6172 108.167 79.5334 107.944C77.8787 109.35 76.2943 110.644 74.724 111.975L42.085 139.631C41.86 139.823 41.6162 140.062 41.4053 140.25H84.9193L84.8537 140.208C84.6193 140.044 84.7412 139.181 84.9428 138.75Z" fill="#FFCEBF"/>
<path d="M39.4131 138.75C39.8002 138.246 40.2673 137.809 40.7959 137.456L85.9647 99.136C89.0459 96.5203 92.1131 93.8906 95.1662 91.2469C95.5435 90.9838 95.8391 90.62 96.0194 90.1969C96.7497 87.0145 96.8532 83.7204 96.3241 80.4985C95.8553 80.8266 95.6022 80.9672 95.3865 81.1969C91.6881 84.5063 88.0084 87.8438 84.2912 91.1344C83.0598 92.3737 81.4672 93.1907 79.7422 93.4678C78.0173 93.7449 76.2488 93.4679 74.6912 92.6766C73.1022 91.9264 71.7722 90.7204 70.8707 89.212C69.9692 87.7036 69.5368 85.9611 69.6287 84.2063C69.6287 83.8078 69.6287 83.4141 69.6287 82.6875C68.949 83.1844 68.4522 83.5172 67.9881 83.8922C49.91 98.3672 31.835 112.831 13.7631 127.284C12.9475 127.936 11.9725 129.389 10.9037 127.978C9.83499 126.567 11.4615 125.986 12.2819 125.33C31.5475 109.87 50.8225 94.425 70.1069 78.9938C73.2475 76.4766 73.4537 75.4219 71.41 71.4235L70.1912 72.5672C66.849 75.675 63.4694 78.7406 60.1787 81.9C58.8289 83.202 57.1384 84.0957 55.3023 84.4778C53.4662 84.86 51.5595 84.715 49.8023 84.0597C48.0451 83.4043 46.5091 82.2654 45.3717 80.7743C44.2342 79.2832 43.5417 77.5007 43.374 75.6328C42.7506 76.1016 42.2115 76.4438 41.7006 76.8422L13.1069 99.0047C12.6137 99.4884 12.0513 99.896 11.4381 100.214C10.9753 100.354 10.4784 100.329 10.0319 100.144V140.273H39.3569C39.2478 140.032 39.1962 139.769 39.2059 139.505C39.2157 139.241 39.2866 138.982 39.4131 138.75Z" fill="#FFCEBF"/>
<path d="M118.632 11.3578C117.835 13.9688 117.061 16.5844 116.363 19.2234C115.718 21.0884 115.793 23.1271 116.573 24.9396C117.354 26.7521 118.783 28.2075 120.582 29.0203C126.082 31.9116 132.28 33.2103 138.479 32.7703V11.8031C138.41 11.3434 138.435 10.8745 138.554 10.425C138.685 10.1707 138.85 9.93572 139.046 9.72656H118.613C118.927 10.0922 118.819 10.7344 118.632 11.3578Z" fill="#FF6196"/>
<path d="M77.5927 56.4C77.4956 58.7403 76.6769 60.9932 75.249 62.85C70.1444 69.4394 64.2822 75.4054 57.7834 80.625C56.7353 81.5951 55.407 82.2083 53.9889 82.3768C52.5707 82.5452 51.1357 82.2601 49.8896 81.5625C48.6493 81.0326 47.6036 80.1316 46.896 78.9834C46.1885 77.8352 45.8538 76.4961 45.938 75.15C46.0882 73.4967 46.7746 71.9379 47.8927 70.7109C55.1599 63.7814 63.0336 57.5173 71.4193 51.9937C71.9685 51.5631 72.6392 51.3159 73.3366 51.2873C74.0339 51.2587 74.7226 51.4501 75.3052 51.8343C76.071 52.3098 76.6901 52.9881 77.0939 53.794C77.4977 54.5999 77.6703 55.5019 77.5927 56.4Z" fill="#FF87AF"/>
<path d="M71.977 84.811C71.8682 83.7748 72.0012 82.7276 72.3656 81.7516C72.73 80.7755 73.3158 79.8973 74.077 79.186C81.1926 72.623 88.8268 66.6458 96.9051 61.3125C97.1489 61.1578 97.3739 61.0032 97.6411 60.8438C98.3467 60.3344 99.2017 60.074 100.072 60.1037C100.941 60.1334 101.777 60.4515 102.446 61.0079C103.093 61.5564 103.551 62.2951 103.755 63.1189C103.959 63.9428 103.898 64.8099 103.58 65.5969C102.558 69.0009 100.672 72.0822 98.1051 74.5407C92.9255 79.6969 87.5489 84.6844 82.1676 89.6344C81.3527 90.4724 80.2823 91.0156 79.1248 91.1786C77.9673 91.3415 76.7885 91.1149 75.7739 90.5344C74.7078 89.9804 73.8 89.1645 73.1358 88.1633C72.4717 87.1622 72.0729 86.0086 71.977 84.811Z" fill="#FF87AF"/>
<path d="M105.802 87.9094C104.49 89.3156 103.14 90.6562 101.879 92.0953C101.5 92.6515 101.185 93.2491 100.941 93.8766C101.635 94.0828 102.446 94.6266 103.008 94.4344C105.873 93.4734 108.666 92.3203 111.812 91.1063C111.127 92.6813 110.612 94.1344 109.885 95.4656C106.892 100.496 103.143 105.036 98.7709 108.928C97.1084 110.531 95.3819 112.064 93.5913 113.527C92.643 114.313 91.5027 114.834 90.2871 115.036C89.0714 115.238 87.8241 115.113 86.6725 114.674C85.521 114.235 84.5067 113.499 83.7333 112.539C82.9599 111.58 82.4553 110.432 82.2709 109.214C82.1958 108.537 82.2557 107.851 82.4472 107.197C82.6387 106.543 82.958 105.933 83.3866 105.403C89.7654 98.4762 97.0555 92.4477 105.057 87.4828C105.154 87.4451 105.257 87.4245 105.362 87.4219L105.802 87.9094Z" fill="#FF87AF"/>
<path d="M116.555 69.239L124.575 33.614L130.2 34.9312L127.299 43.7484C124.59 51.9515 121.847 60.1546 119.204 68.3671C118.688 69.8859 118.013 70.1671 116.555 69.239Z" fill="#FF6196"/>
<path d="M107.499 90.1922C108.347 86.9532 109.191 83.9579 109.904 80.9297C110.598 77.9931 111.919 75.2413 113.776 72.8625C114.915 71.3672 116.194 71.9625 117.502 72.286C118.712 72.5813 119.016 73.4672 119.068 74.6297C119.258 77.8445 118.279 81.0196 116.312 83.5688C113.969 86.4732 110.94 88.7493 107.499 90.1922Z" fill="#FF6196"/>
<path d="M140.926 13.5656C140.996 12.5217 140.969 11.4734 140.846 10.4344C140.749 10.1441 140.558 9.89485 140.302 9.72657C140.094 9.55737 139.851 9.43721 139.59 9.375C139.44 9.34688 139.229 9.50157 139.027 9.72188C138.832 9.93103 138.666 10.166 138.535 10.4203C138.417 10.8698 138.391 11.3387 138.46 11.7984V32.7609C132.262 33.2009 126.063 31.9022 120.563 29.0109C118.765 28.1981 117.335 26.7427 116.555 24.9302C115.774 23.1178 115.699 21.079 116.344 19.2141C117.043 16.575 117.816 13.9594 118.613 11.3484C118.801 10.725 118.908 10.0828 118.613 9.71719C118.449 9.5392 118.222 9.43169 117.98 9.41719C117.671 9.42053 117.371 9.52599 117.127 9.71719C116.777 9.92687 116.497 10.2372 116.326 10.6078C115.388 13.4203 114.563 16.2609 113.846 19.1297C113.575 20.2602 113.502 21.429 113.63 22.5844C113.812 24.6749 114.589 26.6694 115.87 28.3312C117.152 29.993 118.883 31.2522 120.858 31.9594C121.744 32.3297 122.265 32.6953 122.016 33.8625C121.674 35.3438 121.341 36.825 121.004 38.3109C118.707 48.3797 116.422 58.4531 114.151 68.5313C114.087 68.9806 113.889 69.4003 113.583 69.7359C112.086 70.9262 110.828 72.3895 109.876 74.0484C108.662 76.2377 107.822 78.6141 107.391 81.0797C107.308 81.8662 107.024 82.618 106.566 83.2626C106.108 83.9072 105.491 84.4227 104.776 84.7594C102.821 85.7484 101.026 87.0281 98.8552 88.3594C98.9999 85.7494 98.9718 83.1328 98.7709 80.5266C98.6057 79.7249 98.6408 78.8948 98.873 78.1099C99.1052 77.3249 99.5274 76.6094 100.102 76.0266C102.961 73.1943 104.999 69.6402 105.999 65.7422C106.298 64.8386 106.38 63.8774 106.238 62.9363C106.097 61.9952 105.736 61.1006 105.184 60.3248C104.633 59.5491 103.907 58.9139 103.065 58.4707C102.223 58.0274 101.288 57.7886 100.336 57.7734C98.7958 57.7563 97.2832 58.1861 95.9818 59.0109C91.4959 62.0391 87.1318 65.2547 82.8006 68.5078C80.2365 70.4391 77.8224 72.5766 75.3381 74.6016C75.231 74.4865 75.1381 74.3591 75.0615 74.2219C75.014 73.8768 74.921 73.5395 74.7849 73.2188C72.7084 70.0125 74.1474 67.6828 76.4021 65.2875C78.7511 62.8252 80.049 59.5451 80.0209 56.1422C80.0937 54.4084 79.5507 52.7047 78.4881 51.3328C77.922 50.6364 77.2243 50.0582 76.4349 49.6313C75.3137 49.0176 74.0315 48.7614 72.7605 48.8971C71.4895 49.0329 70.2904 49.554 69.324 50.3906L68.0162 51.3281C65.0303 53.4656 62.0068 55.5469 59.1334 57.8344C54.9381 61.1719 50.8412 64.65 46.824 68.2125C44.949 69.8672 43.5802 72.1266 41.6349 73.6641C31.4912 81.675 21.2396 89.5406 11.0256 97.4578C10.6743 97.6673 10.3514 97.921 10.0646 98.2125C10.0351 98.2552 10.01 98.3007 9.98962 98.3484C9.774 98.85 9.59119 99.6797 9.84431 99.9844C9.90636 100.051 9.98135 100.103 10.0646 100.139C10.5111 100.324 11.0081 100.349 11.4709 100.209C12.084 99.8913 12.6465 99.4837 13.1396 99L41.7334 76.8375C42.2443 76.4391 42.7834 76.0781 43.4068 75.6281C43.5744 77.496 44.267 79.2785 45.4044 80.7696C46.5419 82.2607 48.0779 83.3996 49.8351 84.055C51.5923 84.7103 53.499 84.8553 55.3351 84.4731C57.1711 84.091 58.8617 83.1973 60.2115 81.8953C63.4927 78.7359 66.8818 75.6703 70.224 72.5625L71.4427 71.4188C73.4865 75.4172 73.2803 76.4719 70.1396 78.9891C50.8396 94.4328 31.5537 109.88 12.2818 125.33C11.4615 125.986 9.83962 126.581 10.9037 127.978C11.9677 129.375 12.9474 127.936 13.7631 127.284C31.8443 112.844 49.9131 98.3844 67.9693 83.9062C68.4381 83.5312 68.9302 83.1984 69.6099 82.7016C69.6099 83.4281 69.6099 83.8219 69.6099 84.2203C69.518 85.9752 69.9504 87.7177 70.8519 89.226C71.7534 90.7344 73.0834 91.9405 74.6724 92.6906C76.23 93.4819 77.9985 93.759 79.7234 93.4819C81.4484 93.2048 83.041 92.3878 84.2724 91.1484C87.9896 87.8672 91.6693 84.5203 95.3678 81.2109C95.6021 81 95.874 80.8406 96.3053 80.5125C96.8344 83.7344 96.7309 87.0286 96.0006 90.2109C95.8203 90.634 95.5247 90.9979 95.1474 91.2609C92.0912 93.9016 89.024 96.5313 85.9459 99.15L40.7959 137.475C40.2673 137.828 39.8001 138.265 39.4131 138.769C39.2895 138.999 39.2203 139.254 39.2105 139.515C39.2008 139.775 39.2508 140.035 39.3568 140.273C39.5686 140.432 39.8134 140.541 40.0731 140.592C40.3328 140.643 40.6007 140.635 40.8568 140.569C41.059 140.51 41.245 140.406 41.4006 140.264C41.6349 140.077 41.8693 139.838 42.0802 139.645L74.7193 111.989C76.2896 110.658 77.874 109.345 79.5287 107.958C79.6125 108.181 79.6799 108.409 79.7302 108.642C79.8239 110.451 80.4469 112.193 81.5219 113.652C82.5969 115.11 84.0765 116.221 85.7771 116.845C87.4571 117.575 89.3189 117.778 91.1166 117.427C92.9143 117.077 94.5634 116.189 95.8459 114.881C98.0209 112.898 100.168 110.883 102.324 108.877C103.73 107.588 105.09 106.294 106.571 104.902C106.847 105.864 107.071 106.84 107.241 107.827C107.457 110.122 107.14 112.437 106.316 114.591C105.491 116.744 104.181 118.679 102.488 120.244C97.0552 126.094 91.5006 131.817 85.9928 137.587C85.6318 137.962 85.1349 138.272 84.9381 138.717C84.7412 139.163 84.6146 140.034 84.849 140.222L84.9146 140.264C85.4061 140.503 85.9588 140.587 86.499 140.503C86.6503 140.472 86.7853 140.387 86.8787 140.264C87.0099 140.128 87.1365 139.959 87.2631 139.833C91.7256 135.22 96.2115 130.631 100.641 125.986C102.429 124.174 104.11 122.26 105.676 120.253C107.717 117.993 109.07 115.198 109.577 112.195C110.083 109.192 109.722 106.107 108.535 103.303C108.407 102.678 108.532 102.028 108.882 101.494C109.186 100.969 109.524 100.458 109.871 99.9516C110.981 98.5105 111.905 96.9357 112.622 95.2641C114.008 91.1615 116.136 87.3483 118.899 84.0141C120.169 82.4036 121.043 80.5171 121.45 78.5067C121.857 76.4964 121.786 74.4184 121.243 72.4406C121.051 71.6886 121.051 70.9004 121.243 70.1484C123.615 62.8031 126.057 55.4813 128.476 48.1547C129.56 44.8734 130.638 41.6016 131.71 38.3391L132.708 35.3063C134.836 35.3063 136.843 35.2641 138.84 35.3063C140.499 35.3531 141.005 34.575 140.986 32.9625C140.888 26.4938 140.926 20.0297 140.926 13.5656ZM57.7834 80.625C56.7354 81.5951 55.407 82.2084 53.9889 82.3768C52.5707 82.5452 51.1357 82.2602 49.8896 81.5625C48.6493 81.0326 47.6036 80.1317 46.896 78.9835C46.1885 77.8352 45.8538 76.4961 45.9381 75.15C46.0882 73.4968 46.7746 71.9379 47.8927 70.7109C55.1599 63.7815 63.0336 57.5173 71.4193 51.9938C71.877 51.6702 72.3977 51.4466 72.9474 51.3375C73.3162 51.2695 73.6943 51.2695 74.0631 51.3375C74.5047 51.4235 74.9261 51.5921 75.3053 51.8344C76.0718 52.3102 76.6914 52.9893 77.0952 53.7961C77.499 54.6029 77.6712 55.5059 77.5928 56.4047C77.4956 58.745 76.6769 60.9979 75.249 62.8547C70.1441 69.4425 64.2819 75.4069 57.7834 80.625ZM82.1584 89.6672C81.3435 90.5052 80.273 91.0484 79.1155 91.2114C77.958 91.3743 76.7792 91.1477 75.7646 90.5672C74.6966 90.012 73.7876 89.1939 73.1233 88.1901C72.459 87.1862 72.0613 86.0298 71.9677 84.8297C71.8589 83.7936 71.992 82.7463 72.3563 81.7703C72.7207 80.7942 73.3065 79.916 74.0677 79.2047C81.1833 72.6418 88.8175 66.6645 96.8959 61.3313C97.1396 61.1766 97.3646 61.0219 97.6318 60.8625C98.3374 60.3531 99.1924 60.0927 100.062 60.1224C100.932 60.1521 101.767 60.4702 102.436 61.0266C103.084 61.5751 103.542 62.3138 103.746 63.1376C103.95 63.9615 103.888 64.8286 103.571 65.6156C102.549 69.0197 100.663 72.101 98.0959 74.5594C92.9256 79.725 87.549 84.6984 82.1677 89.6484L82.1584 89.6672ZM109.866 95.4844C106.877 100.507 103.135 105.041 98.7709 108.928C97.1084 110.531 95.3818 112.064 93.5912 113.527C92.6429 114.313 91.5027 114.834 90.287 115.036C89.0714 115.238 87.824 115.113 86.6725 114.674C85.5209 114.235 84.5066 113.499 83.7332 112.539C82.9599 111.58 82.4552 110.432 82.2709 109.214C82.1957 108.537 82.2556 107.851 82.4471 107.197C82.6386 106.543 82.9579 105.933 83.3865 105.403C89.7654 98.4762 97.0554 92.4477 105.057 87.4828C105.154 87.4451 105.257 87.4245 105.361 87.4219L105.83 87.8906C104.518 89.2969 103.168 90.6375 101.907 92.0766C101.528 92.6328 101.213 93.2304 100.969 93.8578C101.663 94.0641 102.474 94.6078 103.036 94.4156C105.301 93.6563 107.527 92.775 109.913 91.8375L111.84 91.0875C111.118 92.6813 110.602 94.1344 109.876 95.4656L109.866 95.4844ZM116.302 83.6016C114.554 85.8275 112.362 87.6663 109.866 89.0016C109.094 89.4328 108.302 89.8359 107.49 90.2109C108.324 87.0188 109.158 84.0609 109.866 81.0703L109.894 80.9484C110.589 78.0118 111.909 75.26 113.766 72.8813C114.905 71.3859 116.185 71.9813 117.493 72.3047C118.702 72.6 119.007 73.4859 119.058 74.6484C119.251 77.8604 118.275 81.0336 116.312 83.5828L116.302 83.6016ZM127.271 43.7578C124.562 51.9609 121.819 60.1641 119.176 68.3766C118.679 69.9188 118.004 70.2 116.546 69.2719L123.497 38.3672L124.566 33.6234L130.191 34.9406C129.807 36.0984 129.437 37.2375 129.062 38.3672L127.271 43.7578Z" fill="black"/>
</svg>
